# xmcd CD database file
#
# Track frame offsets:
#	150
#	28726
#	74739
#	104942
#	139338
#	164154
#	196350
#
# Disc length: 3139 seconds
#
# Revision: 0
# Processed by: cddbd v1.5.2PL0 Copyright (c) Steve Scherf et al.
# Submitted via: CDex 1.51
#
DISCID=770c4107
DTITLE=Jimi Beavis and the 385s - Some Songs
DYEAR=2009
DGENRE=Blues
TTITLE0=She's My Baby 
TTITLE1=You're Wrong
TTITLE2=In The Mood
TTITLE3=I Lied And I Cheated
TTITLE4=Two Timing Mama
TTITLE5=He's a Piece of Meat
TTITLE6=Hidden Track
EXTD=YEAR: 2009
EXTT0=
EXTT1=
EXTT2=
EXTT3=
EXTT4=
EXTT5=
EXTT6=
PLAYORDER=
